<?xml version="1.0" encoding="UTF-8" standalone="no"?>
<!-- Created with Inkscape (http://www.inkscape.org/) -->

<svg
   xmlns:dc="http://purl.org/dc/elements/1.1/"
   xmlns:cc="http://creativecommons.org/ns#"
   xmlns:rdf="http://www.w3.org/1999/02/22-rdf-syntax-ns#"
   xmlns:svg="http://www.w3.org/2000/svg"
   xmlns="http://www.w3.org/2000/svg"
   xmlns:sodipodi="http://sodipodi.sourceforge.net/DTD/sodipodi-0.dtd"
   xmlns:inkscape="http://www.inkscape.org/namespaces/inkscape"
   width="250"
   height="250"
   id="svg2"
   version="1.1"
   inkscape:version="0.48.4 r9939"
   sodipodi:docname="default-group-picture.svg">
  <defs
     id="defs4" />
  <sodipodi:namedview
     id="base"
     pagecolor="#ffffff"
     bordercolor="#666666"
     borderopacity="1.0"
     inkscape:pageopacity="0.0"
     inkscape:pageshadow="2"
     inkscape:zoom="0.7"
     inkscape:cx="-144.51862"
     inkscape:cy="120.84209"
     inkscape:document-units="px"
     inkscape:current-layer="layer1"
     showgrid="false"
     inkscape:window-width="1855"
     inkscape:window-height="1056"
     inkscape:window-x="65"
     inkscape:window-y="24"
     inkscape:window-maximized="1" />
  <metadata
     id="metadata7">
    <rdf:RDF>
      <cc:Work
         rdf:about="">
        <dc:format>image/svg+xml</dc:format>
        <dc:type
           rdf:resource="http://purl.org/dc/dcmitype/StillImage" />
        <dc:title />
      </cc:Work>
    </rdf:RDF>
  </metadata>
  <g
     inkscape:label="Layer 1"
     inkscape:groupmode="layer"
     id="layer1"
     transform="translate(0,-802.36218)">
    <rect
       style="fill:#4caf50;stroke:none;stroke-width:1.22285377999999989;stroke-linejoin:miter;stroke-miterlimit:4;stroke-opacity:1;stroke-dasharray:none;fill-opacity:1"
       id="rect2985"
       width="248.77715"
       height="248.77715"
       x="0.61142731"
       y="802.97363" />
    <path
       inkscape:connector-curvature="0"
       d="m 125.0005,898.36218 c -8.837,0 -16,7.954 -16,19 0,11.046 7.163,21 16,21 8.837,0 16,-9.954 16,-21 0,-11.046 -7.163,-19 -16,-19 z m -35.999999,10 c -6.627,0 -12,5.716 -12,14 0,8.284 5.373,16 12,16 6.627,0 11.999999,-7.716 11.999999,-16 0,-8.284 -5.372999,-14 -11.999999,-14 z m 71.999999,0 c -6.627,0 -12,5.591 -12,13.875 0,8.284 5.373,16.125 12,16.125 6.627,0 12,-7.841 12,-16.125 0,-8.284 -5.373,-13.875 -12,-13.875 z m -52,26 c -8.836,0 -15.999999,7.163 -15.999999,16 v 4.5 c 0,0.828 0.672,1.5 1.5,1.5 H 155.5005 c 0.828,0 1.5,-0.672 1.5,-1.5 v -4.5 c 0,-8.836 -7.163,-16 -16,-16 h -2.531 c -0.828,0 -1.914,0.508 -2.5,1.094 -3.059,3.058 -6.887,4.906 -10.969,4.906 -4.082,0 -7.91,-1.849 -10.969,-4.906 -0.586,-0.586 -1.671,-1.094 -2.5,-1.094 h -2.531 z m -33.999999,2 c -7.732,0 -14,6.268 -14,14 v 2.5 c 0,0.828 0.672,1.5 1.5,1.5 h 27 c 0.828,0 1.5,-0.672 1.5,-1.5 v -2.5 c 0,-4.523 1.672,-8.648 4.438,-11.813 0.545,-0.624 0.532,-0.648 -0.156,-0.188 -1.901,1.274 -4.036,2 -6.281,2 -2.769,0 -5.363,-1.099 -7.563,-2.969 -0.631,-0.536 -1.766,-1.031 -2.594,-1.031 h -3.844 z m 96.155999,0 c -0.828,0 -1.963,0.494 -2.594,1.031 -2.194,1.869 -4.805,2.969 -7.563,2.969 -2.329,0 -4.546,-0.785 -6.5,-2.156 -0.678,-0.476 -0.679,-0.46 -0.125,0.156 2.871,3.188 4.625,7.383 4.625,12 v 2.5 c 0,0.828 0.672,1.5 1.5,1.5 h 27 c 0.828,0 1.5,-0.672 1.5,-1.5 v -2.5 c 0,-7.732 -6.268,-14 -14,-14 h -3.844 z"
       id="path4104"
       style="fill:#ffffff;fill-opacity:1" />
  </g>
</svg>
