<?xml version="1.0" encoding="UTF-8" standalone="no"?>
<!-- Created with Inkscape (http://www.inkscape.org/) -->

<svg
   xmlns:dc="http://purl.org/dc/elements/1.1/"
   xmlns:cc="http://creativecommons.org/ns#"
   xmlns:rdf="http://www.w3.org/1999/02/22-rdf-syntax-ns#"
   xmlns:svg="http://www.w3.org/2000/svg"
   xmlns="http://www.w3.org/2000/svg"
   xmlns:sodipodi="http://sodipodi.sourceforge.net/DTD/sodipodi-0.dtd"
   xmlns:inkscape="http://www.inkscape.org/namespaces/inkscape"
   version="1.1"
   width="144.89357"
   height="99.973274"
   id="svg4352"
   inkscape:version="0.48.4 r9939"
   sodipodi:docname="logo_knife.svg">
  <sodipodi:namedview
     pagecolor="#ffffff"
     bordercolor="#666666"
     borderopacity="1"
     objecttolerance="10"
     gridtolerance="10"
     guidetolerance="10"
     inkscape:pageopacity="0"
     inkscape:pageshadow="2"
     inkscape:window-width="1855"
     inkscape:window-height="1056"
     id="namedview3062"
     showgrid="false"
     inkscape:zoom="4.5462151"
     inkscape:cx="63.925467"
     inkscape:cy="56.216252"
     inkscape:window-x="65"
     inkscape:window-y="24"
     inkscape:window-maximized="1"
     inkscape:current-layer="g3860" />
  <defs
     id="defs4354" />
  <metadata
     id="metadata4357">
    <rdf:RDF>
      <cc:Work
         rdf:about="">
        <dc:format>image/svg+xml</dc:format>
        <dc:type
           rdf:resource="http://purl.org/dc/dcmitype/StillImage" />
        <dc:title></dc:title>
      </cc:Work>
    </rdf:RDF>
  </metadata>
  <g
     id="g3860">
    <path
       sodipodi:nodetypes="sscccsss"
       style="fill:#f1c40f;fill-opacity:1"
       id="path3063-9-8-6-7-1-5-4-9"
       d="m 102.50445,0.4718709 c -23.3797,0 -42.33785,18.9549601 -42.33785,42.3378601 0,17.30488 10.38101,32.18113 25.25725,38.74615 l -4.60097,18.40386 16.38854,-15.14217 c 1.73337,0.21787 3.49878,0.33001 5.28983,0.33001 23.3829,0 42.33785,-18.95495 42.33785,-42.33785 0,-23.3829 -18.95175,-42.3378601 -42.33465,-42.3378601 z"
       inkscape:connector-curvature="0" />
    <g
       id="g3891"
       transform="translate(86.483276,1.3441759)">
      <path
         inkscape:connector-curvature="0"
         d="m -86.04388,41.465545 c 0,23.3829 18.95816,42.33785 42.34106,42.33785 1.79105,0 3.55646,-0.11214 5.28983,-0.33001 l 16.38533,15.14218 -4.59776,-18.40387 c 14.87624,-6.56502 25.25725,-21.44126 25.25725,-38.74615 0,-23.3829 -18.95815,-42.33785 -42.33785,-42.33785 -23.3797,0 -42.33786,18.95495 -42.33786,42.33785 z"
         id="path3065-4-9-2-1-3-4-3-7"
         style="fill:#4caf50;fill-opacity:1"
         sodipodi:nodetypes="sscccsss" />
    </g>
    <path
       id="path16"
       style="fill:#ffffff;fill-opacity:1;fill-rule:evenodd;stroke:none"
       d="m 101.9069,49.940019 c -0.58788,10.532326 -1.32583,25.593356 -1.32583,25.593356 l 5.01323,0.05499 c 0,0 -0.13897,-13.691133 -0.0257,-23.526297 0.0389,-3.377419 0.11014,-6.767846 0.11014,-10.153387 0,-1.785749 0,-3.537142 0,-5.315 l 0,-17.178023 c 0,-2.041983 -0.46904,-14.3993138 -4.21347,-7.096805 -1.484111,2.895179 -2.415851,6.531302 -3.049811,10.420277 -0.67079,7.237747 -0.77281,15.665789 -0.35475,19.332438 0.75528,6.625403 3.746741,5.173488 3.855831,7.7"
       inkscape:connector-curvature="0"
       sodipodi:nodetypes="cccsssscccc" />
    <path
       style="fill:#ffffff;stroke:none"
       d="m 40.485403,75.281268 0.4933,-26.934668 c 0,0 -5.25949,-3.089395 -6.30613,-7.318077 -1.3495,-5.452319 0.92676,-30.550785 2.44335,-30.594905 1.91851,-0.05581 0.0984,22.580119 1.76801,22.581674 1.63554,0.0015 0.54527,-22.459314 2.76706,-22.673204 1.78509,-0.171849 0.25916,22.515151 2.07681,22.571316 1.74631,0.05396 0.40211,-22.526486 2.56459,-22.508956 2.33189,0.0189 0.13701,22.449016 1.9541,22.50902 1.98337,0.06549 0.6366,-22.516887 2.57172,-22.504283 1.66567,0.01085 2.6365,26.553974 1.42819,30.597231 -1.49053,4.987618 -6.16489,7.503538 -6.16489,7.503538 l -0.5278,26.752444 z"
       id="path2993-9-1"
       inkscape:connector-curvature="0"
       sodipodi:nodetypes="ccsssssssssccc" />
  </g>
</svg>
