<?xml version="1.0" encoding="UTF-8" standalone="no"?>
<!-- Created with Inkscape (http://www.inkscape.org/) -->

<svg
   xmlns:dc="http://purl.org/dc/elements/1.1/"
   xmlns:cc="http://creativecommons.org/ns#"
   xmlns:rdf="http://www.w3.org/1999/02/22-rdf-syntax-ns#"
   xmlns:svg="http://www.w3.org/2000/svg"
   xmlns="http://www.w3.org/2000/svg"
   xmlns:sodipodi="http://sodipodi.sourceforge.net/DTD/sodipodi-0.dtd"
   xmlns:inkscape="http://www.inkscape.org/namespaces/inkscape"
   width="250"
   height="250"
   id="svg2"
   version="1.1"
   inkscape:version="0.48.4 r9939"
   sodipodi:docname="default-group-picture.svg">
  <defs
     id="defs4" />
  <sodipodi:namedview
     id="base"
     pagecolor="#ffffff"
     bordercolor="#666666"
     borderopacity="1.0"
     inkscape:pageopacity="0.0"
     inkscape:pageshadow="2"
     inkscape:zoom="0.7"
     inkscape:cx="-397.37576"
     inkscape:cy="120.84209"
     inkscape:document-units="px"
     inkscape:current-layer="layer1"
     showgrid="false"
     inkscape:window-width="1855"
     inkscape:window-height="1056"
     inkscape:window-x="65"
     inkscape:window-y="24"
     inkscape:window-maximized="1" />
  <metadata
     id="metadata7">
    <rdf:RDF>
      <cc:Work
         rdf:about="">
        <dc:format>image/svg+xml</dc:format>
        <dc:type
           rdf:resource="http://purl.org/dc/dcmitype/StillImage" />
        <dc:title></dc:title>
      </cc:Work>
    </rdf:RDF>
  </metadata>
  <g
     inkscape:label="Layer 1"
     inkscape:groupmode="layer"
     id="layer1"
     transform="translate(0,-802.36218)">
    <rect
       style="fill:#f1c40f;stroke:none;stroke-width:1.22285377999999989;stroke-linejoin:miter;stroke-miterlimit:4;stroke-opacity:1;stroke-dasharray:none;fill-opacity:1"
       id="rect2985"
       width="248.77715"
       height="248.77715"
       x="0.61142731"
       y="802.97363" />
    <path
       inkscape:connector-curvature="0"
       d="m 125,863.36218 c -17.7,0 -32.000002,12.9 -32.000002,35 0,22.1 11.900002,45 32.000002,45 21.9,0 32,-22.9 32,-45 0,-22.1 -14.3,-35 -32,-35 z m -32.000002,80 c -17.699999,0 -31.999999,14.3 -31.999999,32 v 14.5 c 0,0.8 0.7,1.5 1.5,1.5 H 187.5 c 0.8,0 1.5,-0.7 1.5,-1.5 v -14.5 c 0,-17.7 -14.3,-32 -32,-32 h -8.094 c -0.8,0 -2.019,0.406 -2.719,0.906 -6.1,4.6 -13.287,7.094 -21.188,7.094 -7.5,0 -14.5,-2.494 -20.5,-7.094 -0.7,-0.5 -1.788,-0.906 -2.688,-0.906 h -8.813002 z"
       id="path5688"
       style="fill:#ffffff" />
  </g>
</svg>
