<?xml version="1.0" encoding="UTF-8" standalone="no"?>
<!-- Created with Inkscape (http://www.inkscape.org/) -->

<svg
   xmlns:dc="http://purl.org/dc/elements/1.1/"
   xmlns:cc="http://creativecommons.org/ns#"
   xmlns:rdf="http://www.w3.org/1999/02/22-rdf-syntax-ns#"
   xmlns:svg="http://www.w3.org/2000/svg"
   xmlns="http://www.w3.org/2000/svg"
   xmlns:sodipodi="http://sodipodi.sourceforge.net/DTD/sodipodi-0.dtd"
   xmlns:inkscape="http://www.inkscape.org/namespaces/inkscape"
   version="1.1"
   width="144.89357"
   height="99.973274"
   id="svg4352"
   inkscape:version="0.48.4 r9939"
   sodipodi:docname="logo-new.svg">
  <sodipodi:namedview
     pagecolor="#ffffff"
     bordercolor="#666666"
     borderopacity="1"
     objecttolerance="10"
     gridtolerance="10"
     guidetolerance="10"
     inkscape:pageopacity="0"
     inkscape:pageshadow="2"
     inkscape:window-width="1855"
     inkscape:window-height="1056"
     id="namedview3062"
     showgrid="false"
     inkscape:zoom="6.429319"
     inkscape:cx="51.402725"
     inkscape:cy="48.759956"
     inkscape:window-x="65"
     inkscape:window-y="24"
     inkscape:window-maximized="1"
     inkscape:current-layer="g3887" />
  <defs
     id="defs4354" />
  <metadata
     id="metadata4357">
    <rdf:RDF>
      <cc:Work
         rdf:about="">
        <dc:format>image/svg+xml</dc:format>
        <dc:type
           rdf:resource="http://purl.org/dc/dcmitype/StillImage" />
        <dc:title></dc:title>
      </cc:Work>
    </rdf:RDF>
  </metadata>
  <g
     id="g3860">
    <g
       id="g3887"
       transform="translate(233.60092,1.3441759)">
      <path
         inkscape:connector-curvature="0"
         d="m -131.09647,-0.872305 c -23.3797,0 -42.33785,18.95496 -42.33785,42.33786 0,17.30488 10.38101,32.18113 25.25725,38.74615 l -4.60097,18.40386 16.38854,-15.14217 c 1.73337,0.21787 3.49878,0.33001 5.28983,0.33001 23.3829,0 42.33785,-18.95495 42.33785,-42.33785 0,-23.3829 -18.95175,-42.33786 -42.33465,-42.33786 z"
         id="path3063-9-8-6-7-1-5-4-9"
         style="fill:#f1c40f;fill-opacity:1"
         sodipodi:nodetypes="sscccsss" />
      <path
         sodipodi:nodetypes="ccsssssssssccc"
         inkscape:connector-curvature="0"
         id="path2993-9-1"
         d="m -134.16538,74.601638 0.4933,-26.934668 c 0,0 -5.25949,-3.089395 -6.30613,-7.318077 -1.3495,-5.452319 0.92676,-30.550786 2.44335,-30.594906 1.91851,-0.055813 0.0984,22.58012 1.76801,22.581675 1.63554,0.0015 0.54527,-22.459315 2.76706,-22.6732051 1.78509,-0.1718492 0.25916,22.5151521 2.07681,22.5713171 1.74631,0.05396 0.40211,-22.526487 2.56459,-22.508957 2.33189,0.0189 0.13701,22.449017 1.9541,22.509021 1.98337,0.06549 0.6366,-22.516888 2.57172,-22.504284 1.66567,0.01085 2.6365,26.553975 1.42819,30.597232 -1.49053,4.987618 -6.16489,7.503538 -6.16489,7.503538 l -0.5278,26.752444 z"
         style="fill:#ffffff;stroke:none" />
    </g>
    <g
       id="g3891"
       transform="translate(86.483276,1.3441759)">
      <path
         inkscape:connector-curvature="0"
         d="m -86.04388,41.465545 c 0,23.3829 18.95816,42.33785 42.34106,42.33785 1.79105,0 3.55646,-0.11214 5.28983,-0.33001 l 16.38533,15.14218 -4.59776,-18.40387 c 14.87624,-6.56502 25.25725,-21.44126 25.25725,-38.74615 0,-23.3829 -18.95815,-42.33785 -42.33785,-42.33785 -23.3797,0 -42.33786,18.95495 -42.33786,42.33785 z"
         id="path3065-4-9-2-1-3-4-3-7"
         style="fill:#4caf50;fill-opacity:1"
         sodipodi:nodetypes="sscccsss" />
      <path
         sodipodi:nodetypes="ccsssccc"
         inkscape:connector-curvature="0"
         id="path2993-7"
         d="m -46.656226,74.876261 0.4933,-26.934668 c 0,0 -6.622545,-3.303831 -8.122453,-8.924534 -2.896402,-10.853874 2.67372,-29.674256 11.544277,-29.6298882 8.203716,0.041032 13.955167,18.5591762 9.882157,30.3721242 -1.696812,4.921263 -8.201169,8.345652 -8.201169,8.345652 l -0.5278,26.752444 z"
         style="fill:#ffffff;stroke:none" />
    </g>
  </g>
</svg>
