<?xml version="1.0" encoding="UTF-8" standalone="no"?>
<!-- Created with Inkscape (http://www.inkscape.org/) -->

<svg
   xmlns:dc="http://purl.org/dc/elements/1.1/"
   xmlns:cc="http://creativecommons.org/ns#"
   xmlns:rdf="http://www.w3.org/1999/02/22-rdf-syntax-ns#"
   xmlns:svg="http://www.w3.org/2000/svg"
   xmlns="http://www.w3.org/2000/svg"
   xmlns:sodipodi="http://sodipodi.sourceforge.net/DTD/sodipodi-0.dtd"
   xmlns:inkscape="http://www.inkscape.org/namespaces/inkscape"
   version="1.1"
   width="144.89357"
   height="99.973274"
   id="svg4352"
   inkscape:version="0.48.4 r9939"
   sodipodi:docname="logo_white.svg">
  <sodipodi:namedview
     pagecolor="#ffffff"
     bordercolor="#666666"
     borderopacity="1"
     objecttolerance="10"
     gridtolerance="10"
     guidetolerance="10"
     inkscape:pageopacity="0"
     inkscape:pageshadow="2"
     inkscape:window-width="1855"
     inkscape:window-height="1056"
     id="namedview3062"
     showgrid="false"
     inkscape:zoom="3.2146595"
     inkscape:cx="62.238433"
     inkscape:cy="19.111605"
     inkscape:window-x="65"
     inkscape:window-y="24"
     inkscape:window-maximized="1"
     inkscape:current-layer="layer1" />
  <defs
     id="defs4354" />
  <metadata
     id="metadata4357">
    <rdf:RDF>
      <cc:Work
         rdf:about="">
        <dc:format>image/svg+xml</dc:format>
        <dc:type
           rdf:resource="http://purl.org/dc/dcmitype/StillImage" />
        <dc:title></dc:title>
      </cc:Work>
    </rdf:RDF>
  </metadata>
  <g
     id="g3860">
    <path
       transform="translate(-17.487075,-23.206118)"
       d="m 95.024101,65.439049 a 35.744019,35.744019 0 1 1 -71.488037,0 35.744019,35.744019 0 1 1 71.488037,0 z"
       sodipodi:ry="35.744019"
       sodipodi:rx="35.744019"
       sodipodi:cy="65.439049"
       sodipodi:cx="59.280083"
       id="path3070"
       style="fill:#ffffff;stroke:none"
       sodipodi:type="arc" />
    <path
       transform="translate(43.992639,-23.53606)"
       d="m 95.024101,65.439049 a 35.744019,35.744019 0 1 1 -71.488037,0 35.744019,35.744019 0 1 1 71.488037,0 z"
       sodipodi:ry="35.744019"
       sodipodi:rx="35.744019"
       sodipodi:cy="65.439049"
       sodipodi:cx="59.280083"
       id="path3070-1"
       style="fill:#ffffff;stroke:none"
       sodipodi:type="arc" />
    <g
       id="layer1"
       transform="translate(-278.90024,-432.41215)">
      <path
         inkscape:connector-curvature="0"
         d="m 381.45916,432.89755 c -23.3797,0 -42.33785,18.95496 -42.33785,42.33786 0,17.30488 10.38101,32.18113 25.25725,38.74615 l -4.60097,18.40386 16.38854,-15.14217 c 1.73337,0.21787 3.49878,0.33001 5.28983,0.33001 23.3829,0 42.33785,-18.95495 42.33785,-42.33785 0,-23.3829 -18.95175,-42.33786 -42.33465,-42.33786 z m -4.39591,9.50311 c 0.91956,0 -0.17942,22.49219 1.86794,22.49219 1.86154,0 1.5155,-22.48257 2.73623,-22.48257 1.22073,0 -0.26273,22.49538 2.01533,22.49538 2.25883,0 1.36491,-22.79656 2.58564,-22.48898 1.22073,0.30438 0.2435,22.48898 2.17552,22.48898 1.9096,0 1.41618,-22.49538 2.42544,-22.49538 0.88431,0 3.63015,25.96533 1.68532,30.78417 -0.65362,1.62123 -2.26204,4.48562 -2.57924,4.92457 -3.00216,4.15881 -5.12962,8.54831 -5.89218,13.0884 -1.05092,6.28628 -0.26593,12.27779 0.4005,15.61637 h -4.49203 c 0.73052,-5.84092 1.39375,-13.76124 1.39375,-23.65524 0,-5.08477 -5.73519,-6.01073 -6.706,-11.1724 -0.96762,-5.16167 0.83304,-29.59549 2.38378,-29.59549 z"
         id="path3063-9-8-6-7-1-5-4"
         style="fill:#f1c40f;fill-opacity:1" />
      <path
         inkscape:connector-curvature="0"
         d="m 278.90024,474.75 c 0,23.3829 18.95816,42.33785 42.34106,42.33785 1.79105,0 3.55646,-0.11214 5.28983,-0.33001 l 16.38533,15.14218 -4.59776,-18.40387 c 14.87624,-6.56502 25.25725,-21.44126 25.25725,-38.74615 0,-23.3829 -18.95815,-42.33785 -42.33785,-42.33785 -23.3797,0 -42.33786,18.95495 -42.33786,42.33785 z m 46.71775,3.71666 c -0.21467,0.29797 -0.42614,0.53507 -0.62799,0.83625 -2.67215,3.9121 -4.55611,8.03887 -5.2642,12.25535 -1.05412,6.27987 -0.26913,12.27138 0.3973,15.60996 h -5.53654 c 0.69207,-7.09048 1.29442,-15.0877 1.29442,-25.32453 0,-3.53082 -10.81355,-2.83235 -10.81355,-14.89867 0,-15.10052 6.88223,-25.02977 13.43764,-25.02977 4.11396,0 8.46821,4.96302 10.87763,12.51489 0.0705,0.22107 0.14098,0.44215 0.20506,0.66643 2.19796,7.71207 1.5155,17.04857 -3.96977,23.37009 z"
         id="path3065-4-9-2-1-3-4-3"
         style="fill:#4caf50;fill-opacity:1" />
    </g>
  </g>
</svg>
