<?xml version="1.0" encoding="UTF-8" standalone="no"?>
<!-- Created with Inkscape (http://www.inkscape.org/) -->

<svg
   xmlns:dc="http://purl.org/dc/elements/1.1/"
   xmlns:cc="http://creativecommons.org/ns#"
   xmlns:rdf="http://www.w3.org/1999/02/22-rdf-syntax-ns#"
   xmlns:svg="http://www.w3.org/2000/svg"
   xmlns="http://www.w3.org/2000/svg"
   version="1.1"
   width="144.89357"
   height="99.973274"
   id="svg4352">
  <defs
     id="defs4354" />
  <metadata
     id="metadata4357">
    <rdf:RDF>
      <cc:Work
         rdf:about="">
        <dc:format>image/svg+xml</dc:format>
        <dc:type
           rdf:resource="http://purl.org/dc/dcmitype/StillImage" />
        <dc:title></dc:title>
      </cc:Work>
    </rdf:RDF>
  </metadata>
  <g
     transform="translate(-278.90024,-432.41215)"
     id="layer1">
    <g
       transform="matrix(3.204015,0,0,3.204015,-6920.1373,-8014.2384)"
       id="g4331">
      <path
         d="m 2278.8896,2636.4221 c -7.297,0 -13.214,5.916 -13.214,13.214 0,5.401 3.24,10.044 7.883,12.093 l -1.436,5.744 5.115,-4.726 c 0.541,0.068 1.092,0.103 1.651,0.103 7.298,0 13.214,-5.916 13.214,-13.214 0,-7.298 -5.915,-13.214 -13.213,-13.214 z m -1.372,2.966 c 0.287,0 -0.056,7.02 0.583,7.02 0.581,0 0.473,-7.017 0.854,-7.017 0.381,0 -0.082,7.021 0.629,7.021 0.705,0 0.426,-7.115 0.807,-7.019 0.381,0.095 0.076,7.019 0.679,7.019 0.596,0 0.442,-7.021 0.757,-7.021 0.276,0 1.133,8.104 0.526,9.608 -0.204,0.506 -0.706,1.4 -0.805,1.537 -0.937,1.298 -1.601,2.668 -1.839,4.085 -0.328,1.962 -0.083,3.832 0.125,4.874 h -1.402 c 0.228,-1.823 0.435,-4.295 0.435,-7.383 0,-1.587 -1.79,-1.876 -2.093,-3.487 -0.302,-1.611 0.26,-9.237 0.744,-9.237 z"
         id="path3063-9-8-6-7-1-5-4"
         style="fill:#f1c40f;fill-opacity:1" />
      <path
         d="m 2246.8801,2649.4846 c 0,7.298 5.917,13.214 13.215,13.214 0.559,0 1.11,-0.035 1.651,-0.103 l 5.114,4.726 -1.435,-5.744 c 4.643,-2.049 7.883,-6.692 7.883,-12.093 0,-7.298 -5.917,-13.214 -13.214,-13.214 -7.297,0 -13.214,5.916 -13.214,13.214 z m 14.581,1.16 c -0.067,0.093 -0.133,0.167 -0.196,0.261 -0.834,1.221 -1.422,2.509 -1.643,3.825 -0.329,1.96 -0.084,3.83 0.124,4.872 h -1.728 c 0.216,-2.213 0.404,-4.709 0.404,-7.904 0,-1.102 -3.375,-0.884 -3.375,-4.65 0,-4.713 2.148,-7.812 4.194,-7.812 1.284,0 2.643,1.549 3.395,3.906 0.022,0.069 0.044,0.138 0.064,0.208 0.686,2.407 0.473,5.321 -1.239,7.294 z"
         id="path3065-4-9-2-1-3-4-3"
         style="fill:#69b628" />
    </g>
  </g>
</svg>
