<?xml version="1.0" encoding="UTF-8" standalone="no"?>
<!-- Created with Inkscape (http://www.inkscape.org/) -->

<svg
   xmlns:dc="http://purl.org/dc/elements/1.1/"
   xmlns:cc="http://creativecommons.org/ns#"
   xmlns:rdf="http://www.w3.org/1999/02/22-rdf-syntax-ns#"
   xmlns:svg="http://www.w3.org/2000/svg"
   xmlns="http://www.w3.org/2000/svg"
   xmlns:sodipodi="http://sodipodi.sourceforge.net/DTD/sodipodi-0.dtd"
   xmlns:inkscape="http://www.inkscape.org/namespaces/inkscape"
   id="svg3004"
   version="1.1"
   inkscape:version="0.48.4 r9939"
   width="911.4125"
   height="385.0875"
   xml:space="preserve"
   sodipodi:docname="LC_StartupWeekend_Logo_CMYK_REVERSE-BLK_cmyk.pdf"><metadata
     id="metadata3010"><rdf:RDF><cc:Work
         rdf:about=""><dc:format>image/svg+xml</dc:format><dc:type
           rdf:resource="http://purl.org/dc/dcmitype/StillImage" /><dc:title></dc:title></cc:Work></rdf:RDF></metadata><defs
     id="defs3008"><clipPath
       clipPathUnits="userSpaceOnUse"
       id="clipPath3020"><path
         d="m 0,0 7291,0 0,3080.73 -7291,0 L 0,0 z"
         id="path3022" /></clipPath></defs><sodipodi:namedview
     pagecolor="#ffffff"
     bordercolor="#666666"
     borderopacity="1"
     objecttolerance="10"
     gridtolerance="10"
     guidetolerance="10"
     inkscape:pageopacity="0"
     inkscape:pageshadow="2"
     inkscape:window-width="1855"
     inkscape:window-height="1056"
     id="namedview3006"
     showgrid="false"
     inkscape:zoom="1.8410983"
     inkscape:cx="455.70624"
     inkscape:cy="192.54375"
     inkscape:window-x="65"
     inkscape:window-y="24"
     inkscape:window-maximized="1"
     inkscape:current-layer="g3012" /><g
     id="g3012"
     inkscape:groupmode="layer"
     inkscape:label="LC_StartupWeekend_Logo_CMYK_REVERSE-BLK_cmyk"
     transform="matrix(1.25,0,0,-1.25,0,385.0875)"><g
       id="g3014"
       transform="scale(0.1,0.1)"><g
         id="g3016"><g
           id="g3018"
           clip-path="url(#clipPath3020)"><path
             d="m 3948.09,1916.44 c 0,104.71 84.17,155.78 180.02,160.65 l 0,155.85 c -159.01,-5.61 -187.18,-99.11 -187.18,-99.11 l 0,98.11 -188.57,0 0,-593.6 195.73,0 0,278.1"
             style="fill:#3c3b3c;fill-opacity:1;fill-rule:nonzero;stroke:none"
             id="path3024" /><path
             d="m 2492.64,1633.56 c 39.01,11.17 73.61,28.22 103.84,51.32 30.25,23.1 54.32,52.32 72.21,87.71 17.91,35.41 26.85,77.4 26.85,125.91 0,42.15 -8.37,77.39 -25.07,105.61 -16.7,28.25 -37.8,51.93 -63.26,71.01 -25.44,19.09 -53.7,34.4 -84.73,45.95 -31.01,11.53 -60.84,22.07 -89.51,31.62 -19.86,6.38 -37.75,12.53 -53.69,18.49 -15.91,5.99 -29.62,12.53 -41.15,19.7 -11.53,7.17 -20.3,15.54 -26.28,25.07 -5.95,9.55 -8.94,21.5 -8.94,35.81 0,16.7 3.78,30.44 11.34,41.17 7.55,10.73 16.89,19.48 28.04,26.28 11.15,6.73 23.66,11.33 37.61,13.71 13.87,2.37 27.62,3.6 41.15,3.6 26.26,0 53.51,-6.61 81.74,-19.7 28.23,-13.16 51.11,-30.86 68.62,-53.11 l 130.12,137.21 c -37.43,34.24 -80.98,60.07 -130.69,77.58 -49.74,17.51 -98.49,26.25 -146.2,26.25 -39.79,0 -79.17,-4.98 -118.15,-14.9 -39,-9.95 -74,-25.66 -105.04,-47.15 -31,-21.49 -56.06,-48.93 -75.17,-82.35 -19.09,-33.39 -28.62,-73.61 -28.62,-120.51 0,-38.21 6.12,-70.62 18.47,-97.29 12.35,-26.65 28.64,-49.33 48.96,-67.99 20.29,-18.71 43.32,-34.03 69.19,-45.98 25.87,-11.93 52.31,-22.27 79.37,-31.02 27.82,-8.76 52.68,-16.9 74.58,-24.45 21.87,-7.56 40.17,-15.93 54.91,-25.1 14.72,-9.14 26.04,-19.27 34,-30.41 7.94,-11.15 11.94,-24.64 11.94,-40.54 0,-16.76 -3.18,-31.06 -9.55,-43 -6.36,-11.93 -14.93,-21.49 -25.64,-28.64 -10.75,-7.14 -23.29,-12.34 -37.62,-15.49 -14.31,-3.24 -29.05,-4.8 -44.15,-4.8 -33.42,0 -67.02,8.54 -100.85,25.66 -33.8,17.14 -61.06,38.37 -81.73,63.81 l -133.65,-136.01 c 37.37,-38.99 84.31,-69.03 140.8,-90.1 56.49,-21.05 114.97,-31.63 175.43,-31.63 41.37,0 81.55,5.59 120.52,16.7"
             style="fill:#3c3b3c;fill-opacity:1;fill-rule:nonzero;stroke:none"
             id="path3026" /><path
             d="m 4183.65,1749.06 c 7.15,-25.91 18.88,-48.28 35.19,-67.01 16.32,-18.74 38,-33.09 65.06,-43.1 27.01,-9.95 60.44,-14.91 100.21,-14.91 13.47,0 26.91,0.84 40.36,2.33 l -0.02,-0.06 c 34.16,2.22 82.54,14.32 127.03,27.82 -32.36,46.41 -56.35,131 -56.35,131 -7.18,-3.19 -16.11,-5.57 -26.85,-7.15 -10.74,-1.63 -20.89,-2.39 -30.44,-2.39 -27.87,0 -47.13,6.98 -57.88,20.96 -10.74,13.99 -16.12,34.95 -16.12,62.89 l 0,227.63 126.02,0 0,145.59 -126.02,0 0,156.33 -192.14,0 1.21,-553.18 c 0,-31.92 3.56,-60.86 10.74,-86.75"
             style="fill:#3c3b3c;fill-opacity:1;fill-rule:nonzero;stroke:none"
             id="path3028" /><path
             d="m 4587.93,1698.63 c 17.09,-22.7 39.37,-41.19 66.84,-55.51 27.44,-14.31 61.05,-21.48 100.84,-21.48 20.67,0 40.37,2.82 59.06,8.36 18.71,5.56 35.82,12.71 51.32,21.49 15.5,8.72 29.03,19.09 40.58,31.03 11.53,11.9 20.87,24.65 28.04,38.19 l 2.39,0 0,-82.37 188.54,0 0,594.32 -195.71,0 0,-321.01 c 0,-34.23 -8.95,-64.08 -26.85,-89.52 -17.9,-25.46 -43.97,-38.18 -78.16,-38.18 -18.31,0 -33,3.37 -44.15,10.13 -11.16,6.76 -20.1,16.12 -26.85,28.05 -6.77,11.93 -11.34,25.44 -13.73,40.59 -2.39,15.12 -3.59,31.02 -3.59,47.71 l 0,322.23 -196.89,0 0,-367.55 c 0,-30.27 3.75,-59.87 11.32,-88.92 7.56,-29.06 19.87,-54.92 37,-77.56"
             style="fill:#3c3b3c;fill-opacity:1;fill-rule:nonzero;stroke:none"
             id="path3030" /><path
             d="m 5385.66,1992.78 c 6.75,18.3 16.31,34.65 28.64,48.97 12.34,14.29 27.25,25.82 44.77,34.57 17.48,8.75 37.39,13.11 59.64,13.11 23.07,0 43.36,-4.36 60.87,-13.11 17.49,-8.75 32.02,-20.11 43.58,-34 11.5,-13.95 20.29,-30.03 26.24,-48.35 5.99,-18.3 8.95,-37 8.95,-56.08 0,-19.1 -2.96,-38.01 -8.95,-56.68 -5.95,-18.69 -14.74,-35.21 -26.24,-49.52 -11.56,-14.36 -26.09,-25.88 -43.58,-34.63 -17.51,-8.76 -37.8,-13.11 -60.87,-13.11 -22.25,0 -42.16,4.35 -59.64,13.11 -17.52,8.75 -32.43,20.27 -44.77,34.63 -12.33,14.31 -21.89,30.58 -28.64,48.91 -6.77,18.32 -10.14,37 -10.14,56.08 0,19.09 3.37,37.82 10.14,56.1 m -2.97,-285.07 2.39,-3.73 c 18.28,-25.46 43.74,-45.54 76.37,-60.27 32.62,-14.71 67.22,-22.07 103.83,-22.07 44.54,0 84.32,8.77 119.32,26.24 35.01,17.5 64.65,40.8 88.93,69.81 24.24,29.05 42.74,62.66 55.49,100.85 12.7,38.22 19.07,77.96 19.07,119.35 0,41.37 -6.56,80.98 -19.66,118.74 -13.14,37.78 -31.83,71.01 -56.1,99.66 -24.28,28.64 -53.92,51.3 -88.93,68.01 -35,16.74 -73.95,25.07 -116.93,25.07 -43.76,0 -81.75,-8.96 -113.96,-26.85 -32.23,-17.89 -57.5,-38.81 -75.8,-62.64 l -3.56,-4.56 0,77.34 -186.19,0 0,-880.72 195.73,0 0,355.77"
             style="fill:#3c3b3c;fill-opacity:1;fill-rule:nonzero;stroke:none"
             id="path3032" /><path
             d="m 2676.5,2087.07 95.47,0 0,-251.26 c 0,-31.92 3.58,-60.86 10.76,-86.74 7.14,-25.92 18.88,-48.29 35.2,-67.02 16.29,-18.77 37.97,-33.09 65.06,-43.1 27.04,-9.95 60.44,-14.91 100.2,-14.91 20.7,0 41.4,1.76 62.07,5.35 18.66,3.24 44.79,10.35 59.96,16.59 -24.69,36.71 -42.3,81.48 -53.79,130.19 -28.61,-3.58 -61.63,6.37 -72.4,20.38 -10.72,13.99 -16.1,34.95 -16.1,62.89 l 0,227.63 128.22,0 0,145.59 -128.22,0 0,156.33 -192.14,0 0,-156.33 -94.29,0 0,-145.59"
             style="fill:#3c3b3c;fill-opacity:1;fill-rule:nonzero;stroke:none"
             id="path3034" /><path
             d="m 3489.7,1897.32 0,-20.29 c 0,-37.39 -10.55,-67.04 -31.61,-88.9 -21.1,-21.89 -51.54,-32.83 -91.31,-32.83 -9.56,0 -19.52,0.99 -29.83,2.98 -10.36,2 -19.5,5.41 -27.44,10.16 -7.97,4.75 -14.55,11.15 -19.7,19.09 -5.18,7.94 -7.77,17.5 -7.77,28.62 0,17.5 5.55,31.62 16.72,42.39 11.13,10.73 25.24,18.88 42.38,24.44 17.08,5.57 36.56,9.33 58.45,11.35 21.9,1.97 43.57,2.99 65.06,2.99 l 25.05,0 z m -138.44,106.22 c -45.34,-4.8 -86.52,-14.3 -123.52,-28.65 -36.98,-14.31 -67.24,-34.61 -90.7,-60.85 -23.47,-26.25 -35.19,-60.88 -35.19,-103.82 0,-35.04 6.74,-64.48 20.28,-88.32 13.52,-23.9 30.82,-42.99 51.9,-57.31 21.06,-14.3 44.36,-24.67 69.82,-31.03 25.46,-6.36 50.13,-9.52 73.98,-9.52 35.8,0 69.03,6.74 99.68,20.28 30.62,13.49 53.5,32.61 68.62,57.29 l 3.57,0 0,-63.27 179.02,0 0,299.55 c 0,54.1 -5,100.84 -14.93,140.21 -9.96,39.38 -25.68,72 -47.14,97.88 -21.48,25.83 -49.53,44.95 -84.15,57.28 -34.6,12.33 -76.97,18.5 -127.09,18.5 -48.53,0 -96.05,-8.35 -142.61,-25.07 -46.51,-16.71 -87.34,-41.76 -122.31,-75.18 l 99.05,-106.23 c 18.28,16.74 40.36,31.04 66.23,42.98 25.84,11.93 52.68,17.89 80.56,17.89 30.22,0 55.68,-6.95 76.35,-20.87 20.73,-13.95 31.04,-35.62 31.04,-65.04 l 0,-9.55 c -42.95,0 -87.12,-2.37 -132.46,-7.15"
             style="fill:#3c3b3c;fill-opacity:1;fill-rule:nonzero;stroke:none"
             id="path3036" /><path
             d="m 3554.16,1451.13 -212.42,0 -136.05,-562.11 -3.59,0 -115.64,562.11 -212.42,0 -114.44,-562.11 -3.57,0 -133.68,562.11 -219.57,0 239.89,-844.97 211.82,0 123.75,547.42 123.77,-547.42 211.08,0 241.07,844.97"
             style="fill:#3c3b3c;fill-opacity:1;fill-rule:nonzero;stroke:none"
             id="path3038" /><path
             d="m 3670.51,1014.93 c 7.18,13.91 16.73,26.03 28.67,36.38 11.94,10.34 25.84,18.5 41.77,24.46 15.91,5.99 33.43,8.97 52.5,8.97 39,0 68.22,-11.15 87.71,-33.43 19.48,-22.28 29.24,-48.91 29.24,-79.939 l -251.81,0 c 0.77,15.09 4.79,29.609 11.92,43.559 m 397.43,-301.328 -136.05,85.91 c -13.55,-18.321 -31.01,-33.223 -52.52,-44.782 -21.48,-11.539 -47.73,-17.269 -78.74,-17.269 -17.52,0 -34.43,2.75 -50.73,8.34 -16.32,5.539 -31.03,13.32 -44.14,23.269 -13.14,9.95 -23.89,21.68 -32.23,35.219 -8.38,13.512 -13.35,28.641 -14.94,45.352 l 430.83,0 c 0.77,7.16 1.19,14.699 1.19,22.668 l 0,23.871 c 0,50.898 -7.35,96.269 -22.08,136.05 -14.73,39.77 -35.22,73.59 -61.46,101.45 -26.25,27.84 -57.69,49.1 -94.27,63.83 -36.61,14.73 -76.79,22.07 -120.54,22.07 -45.35,0 -87.53,-7.56 -126.49,-22.66 -38.99,-15.12 -72.83,-36.39 -101.44,-63.87 -28.64,-27.44 -51.3,-60.85 -68.03,-100.23 -16.72,-39.371 -25.05,-83.351 -25.05,-131.89 0,-50.102 8.52,-94.668 25.65,-133.66 17.08,-38.961 40.55,-71.79 70.4,-98.43 29.85,-26.649 64.65,-46.949 104.43,-60.879 39.77,-13.891 81.95,-20.871 126.5,-20.871 60.45,0 113.57,10.949 159.31,32.808 45.75,21.891 82.52,53.122 110.4,93.704"
             style="fill:#3c3b3c;fill-opacity:1;fill-rule:nonzero;stroke:none"
             id="path3040" /><path
             d="m 4313.14,971.371 c 0.79,15.09 4.78,29.639 11.94,43.529 7.15,13.94 16.7,26.06 28.64,36.41 11.94,10.33 25.84,18.5 41.78,24.46 15.9,5.97 33.42,8.97 52.49,8.97 38.98,0 68.22,-11.15 87.74,-33.43 19.45,-22.28 29.21,-48.91 29.21,-79.939 l -251.8,0 z m 348.47,162.289 c -26.25,27.86 -57.69,49.12 -94.28,63.85 -36.6,14.73 -76.78,22.07 -120.51,22.07 -45.37,0 -87.53,-7.56 -126.5,-22.66 -39,-15.12 -72.81,-36.39 -101.45,-63.87 -28.64,-27.44 -51.33,-60.85 -68.03,-100.23 -16.7,-39.371 -25.05,-83.351 -25.05,-131.89 0,-50.102 8.52,-94.668 25.65,-133.66 17.11,-38.961 40.56,-71.79 70.41,-98.43 29.85,-26.649 64.64,-46.949 104.42,-60.879 39.77,-13.891 81.93,-20.891 126.51,-20.891 60.46,0 113.56,10.969 159.32,32.828 45.75,21.872 82.53,53.122 110.38,93.684 l -136.05,85.93 c -13.52,-18.321 -31.01,-33.223 -52.52,-44.782 -21.46,-11.511 -47.71,-17.269 -78.74,-17.269 -17.52,0 -34.43,2.777 -50.73,8.34 -16.32,5.539 -31.03,13.301 -44.16,23.269 -13.11,9.95 -23.87,21.68 -32.21,35.219 -8.35,13.512 -13.35,28.66 -14.93,45.352 l 430.82,0 c 0.8,7.16 1.2,14.699 1.2,22.668 l 0,23.871 c 0,50.898 -7.36,96.269 -22.09,136.05 -14.73,39.77 -35.19,73.59 -61.46,101.43"
             style="fill:#3c3b3c;fill-opacity:1;fill-rule:nonzero;stroke:none"
             id="path3042" /><path
             d="m 5531.61,971.371 c 0.77,15.09 4.76,29.639 11.92,43.529 7.15,13.94 16.73,26.06 28.64,36.41 11.94,10.33 25.84,18.5 41.77,24.46 15.92,5.97 33.43,8.97 52.5,8.97 38.97,0 68.24,-11.15 87.71,-33.43 19.48,-22.28 29.24,-48.91 29.24,-79.939 l -251.78,0 z m 348.47,162.289 c -26.28,27.86 -57.71,49.12 -94.3,63.85 -36.6,14.73 -76.78,22.07 -120.54,22.07 -45.34,0 -87.52,-7.56 -126.5,-22.66 -38.97,-15.12 -72.78,-36.39 -101.43,-63.87 -28.64,-27.44 -51.31,-60.85 -68.02,-100.23 -16.72,-39.371 -25.05,-83.351 -25.05,-131.89 0,-50.102 8.52,-94.668 25.65,-133.66 17.11,-38.961 40.56,-71.79 70.42,-98.43 29.81,-26.649 64.63,-46.949 104.41,-60.879 39.77,-13.891 81.92,-20.891 126.5,-20.891 60.44,0 113.56,10.969 159.33,32.828 45.73,21.872 82.51,53.122 110.38,93.684 l -136.06,85.93 c -13.54,-18.321 -31,-33.223 -52.49,-44.782 -21.51,-11.511 -47.75,-17.269 -78.77,-17.269 -17.51,0 -34.42,2.777 -50.72,8.34 -16.32,5.539 -31.03,13.301 -44.17,23.269 -13.11,9.95 -23.88,21.68 -32.2,35.219 -8.36,13.512 -13.35,28.66 -14.91,45.352 l 430.81,0 c 0.76,7.16 1.19,14.699 1.19,22.668 l 0,23.871 c 0,50.898 -7.36,96.269 -22.09,136.05 -14.71,39.77 -35.19,73.59 -61.44,101.43"
             style="fill:#3c3b3c;fill-opacity:1;fill-rule:nonzero;stroke:none"
             id="path3044" /><path
             d="m 6545.15,1140.24 c -17.1,22.65 -39.57,41.17 -67.42,55.47 -27.83,14.34 -61.66,21.5 -101.43,21.5 -20.7,0 -40.2,-2.8 -58.47,-8.34 -18.31,-5.61 -35.23,-12.76 -50.73,-21.52 -15.51,-8.75 -29.05,-19.26 -40.58,-31.6 -11.53,-12.35 -20.89,-24.89 -28.05,-37.61 l -2.39,-4.12 0,86.47 -189.74,0 0,-594.33 196.93,0 0,322.231 c 0,16.73 2.17,32.82 6.54,48.328 4.36,15.519 10.93,29.241 19.7,41.191 8.73,11.93 19.69,21.27 32.83,28.05 13.14,6.73 28.43,10.13 45.93,10.13 17.5,0 32.02,-3.4 43.55,-10.13 11.54,-6.78 20.48,-15.93 26.87,-27.46 6.34,-11.53 10.92,-24.91 13.71,-40 2.79,-15.121 4.19,-31.031 4.19,-47.719 l 0,-324.621 196.92,0 0,367.59 c 0,29.4 -3.8,58.86 -11.34,88.31 -7.58,29.42 -19.91,55.51 -37.02,78.18"
             style="fill:#3c3b3c;fill-opacity:1;fill-rule:nonzero;stroke:none"
             id="path3046" /><path
             d="m 7093.84,848.41 c -6.75,-18.289 -16.31,-34.601 -28.62,-48.898 -12.36,-14.321 -27.28,-25.883 -44.76,-34.621 -17.53,-8.75 -37.4,-13.129 -59.68,-13.129 -23.08,0 -43.38,4.379 -60.88,13.129 -17.48,8.738 -32.2,20.3 -44.16,34.621 -11.91,14.297 -20.87,30.828 -26.82,49.539 -5.99,18.66 -8.95,37.578 -8.95,56.687 0,19.094 2.96,37.75 8.95,56.071 5.95,18.293 14.91,34.402 26.82,48.341 11.96,13.88 26.68,25.23 44.16,34 17.5,8.75 37.8,13.13 60.88,13.13 22.28,0 42.15,-4.38 59.68,-13.13 17.48,-8.77 32.4,-20.26 44.76,-34.6 12.31,-14.3 21.87,-30.628 28.62,-48.909 6.77,-18.34 10.16,-37.02 10.16,-56.129 0,-19.063 -3.39,-37.782 -10.16,-56.102 m 1.79,659.99 0,-374.44 -2.37,3.27 c -16.72,19.9 -40.2,38.2 -70.41,54.9 -30.25,16.74 -67.24,25.08 -111,25.08 -42.96,0 -81.73,-8.34 -116.36,-25.08 -34.62,-16.7 -64.05,-39.36 -88.3,-68.02 -24.27,-28.64 -42.96,-61.88 -56.1,-99.65 -13.11,-37.788 -19.69,-77.382 -19.69,-118.722 0,-41.398 6.35,-81.168 19.1,-119.347 12.73,-38.2 31.2,-71.813 55.5,-100.84 24.25,-29.063 53.87,-52.34 88.9,-69.813 35,-17.476 74.78,-26.269 119.34,-26.269 39.76,0 77.36,8.179 112.8,24.472 35.36,16.297 62.64,39.539 81.72,69.778 l 2.4,4.59 0,-82.149 180.19,0 0,902.24 -195.72,0"
             style="fill:#3c3b3c;fill-opacity:1;fill-rule:nonzero;stroke:none"
             id="path3048" /><path
             d="m 5166.77,931.961 229.13,268.529 -237.48,0 -165.04,-209.638 0,460.278 -196.92,0 0,-844.97 196.92,0 0,248.981 169.8,-248.981 242.29,0 -238.7,325.801"
             style="fill:#3c3b3c;fill-opacity:1;fill-rule:nonzero;stroke:none"
             id="path3050" /><path
             d="m 1027.41,2698.57 c 105.57,0 191.08,85.55 191.08,191.11 0,105.52 -85.51,191.05 -191.08,191.05 -105.512,0 -191.074,-85.53 -191.074,-191.05 0,-105.56 85.562,-191.11 191.074,-191.11"
             style="fill:#3c3b3c;fill-opacity:1;fill-rule:nonzero;stroke:none"
             id="path3052" /><path
             d="m 526.055,747.078 -0.102,0.031 0.102,0.493 0,-0.524 z M 1804.51,866.02 c 0,0.91 0.05,1.8 0.05,2.742 0,87.797 -59.24,161.828 -139.95,184.158 -22.99,8.25 -39.86,29.18 -42.28,54.32 l 0,104.16 c 0,157.72 -128.29,286.02 -286.04,286.02 -5.63,0 -11.22,-0.17 -16.78,-0.5 l 0,0.05 c -38.38,-4.8 -54.55,-5.76 -104.22,-23.88 -44.77,-16.35 -2.54,56.67 104.22,77.79 l 0,308.61 c -58.76,-5.39 -120.49,-8.2 -183.56,-8.2 -104.28,0 -204.794,7.67 -294.302,22.03 0,-221.14 -0.789,-275.16 -0.789,-275.16 L 304.875,748.191 c -53.48,-90.402 -91.59,-200.14 -26.75,-277.312 1.652,101.25 84.512,183.152 186.125,183.152 102.668,0 186.176,-83.57 186.176,-186.211 l 0,-143.59 c 5.773,-1.3 11.582,-2.66 17.422,-3.89 26.84,-5.82 54.312,-11.098 82.449,-15.82 l 0,163.3 c 0,97.75 -49.336,184.239 -124.395,235.828 l 0,277.704 c 0,102.638 83.528,186.178 186.196,186.178 98.082,0 178.714,-76.25 185.703,-172.6 C 910.629,945.852 851.652,852.488 851.652,745.539 l 0,-455.391 c 32.633,-3.757 65.891,-6.886 99.868,-9.347 l 0,464.738 c 0,102.68 83.5,186.18 186.18,186.18 102.67,0 186.17,-83.5 186.17,-186.18 l 0,-464.707 c 33.97,2.43 67.29,5.559 99.87,9.316 l 0,455.391 c 0,153.551 -121.65,279.241 -273.63,285.741 l 0,180.12 c 0,102.67 83.51,186.19 186.18,186.19 102.64,0 186.17,-83.52 186.17,-186.19 l 0,-907.298 c 31.41,5.25 62.09,11.117 91.93,17.726 2.63,0.602 5.26,1.231 7.94,1.844 l 0,413.226 c 32.23,24.473 71.74,37.891 112.48,37.891 102.69,0 186.18,-83.539 186.18,-186.207 l 0,-160.953 c 40.17,20.242 73.21,40.391 99.87,58.762 l 0,102.191 c 0,133.719 -92.22,246.227 -216.35,277.438"
             style="fill:#3c3b3c;fill-opacity:1;fill-rule:nonzero;stroke:none"
             id="path3054" /><path
             d="m 1203.9,659.891 -2.01,0.07 c 0,0 -37.14,-2.211 -64.17,-2.211 -27.01,0 -65.06,2.359 -65.06,2.359 -7.13,-0.148 -13.85,-4.699 -16.27,-11.89 -3.04,-9.16 1.89,-19.008 11.01,-22.078 0,0 33,-11.563 70.32,-11.563 37.35,0 71.1,11.652 71.1,11.652 6.66,2.258 11.59,8.399 11.76,15.84 0.28,9.532 -7.11,17.5 -16.68,17.821"
             style="fill:#3c3b3c;fill-opacity:1;fill-rule:nonzero;stroke:none"
             id="path3056" /><path
             d="m 1205.38,793.23 c -22.08,0 -40.03,-17.921 -40.03,-39.98 0,-22.102 17.95,-29.41 40.03,-29.41 22.11,0 40.06,7.308 40.06,29.41 0,22.059 -17.95,39.98 -40.06,39.98"
             style="fill:#3c3b3c;fill-opacity:1;fill-rule:nonzero;stroke:none"
             id="path3058" /><path
             d="m 1110.03,753.25 c 0,22.082 -17.89,39.98 -39.97,39.98 -22.09,0 -40.09,-17.898 -40.09,-39.98 0,-22.102 18,-29.41 40.09,-29.41 22.08,0 39.97,7.308 39.97,29.41"
             style="fill:#3c3b3c;fill-opacity:1;fill-rule:nonzero;stroke:none"
             id="path3060" /><path
             d="m 1342.75,2471.46 c 83.38,0 150.98,67.59 150.98,150.99 0,83.35 -67.6,150.97 -150.98,150.97 -83.39,0 -150.96,-67.62 -150.96,-150.97 0,-83.4 67.57,-150.99 150.96,-150.99"
             style="fill:#3c3b3c;fill-opacity:1;fill-rule:nonzero;stroke:none"
             id="path3062" /><path
             d="m 830.211,902.629 -2.008,0.109 c 0,0 -37.137,-2.199 -64.172,-2.199 -26.988,0 -65.035,2.383 -65.035,2.383 -7.129,-0.184 -13.855,-4.742 -16.269,-11.942 -3.063,-9.121 1.89,-19 11.007,-22.101 0,0 32.969,-11.508 70.297,-11.508 37.375,0 71.137,11.649 71.137,11.649 6.617,2.218 11.555,8.41 11.742,15.839 0.289,9.532 -7.129,17.481 -16.699,17.77"
             style="fill:#3c3b3c;fill-opacity:1;fill-rule:nonzero;stroke:none"
             id="path3064" /><path
             d="m 871.512,996.039 c 0,22.061 -17.903,39.971 -40.035,39.971 -22.082,0 -40.024,-17.91 -40.024,-39.971 0,-22.09 17.942,-29.418 40.024,-29.418 22.132,0 40.035,7.328 40.035,29.418"
             style="fill:#3c3b3c;fill-opacity:1;fill-rule:nonzero;stroke:none"
             id="path3066" /><path
             d="m 744.074,996.039 c 0,22.081 -17.871,39.971 -39.961,39.971 -22.105,0 -40.101,-17.89 -40.101,-39.971 0,-22.09 17.996,-29.418 40.101,-29.418 22.09,0 39.961,7.328 39.961,29.418"
             style="fill:#3c3b3c;fill-opacity:1;fill-rule:nonzero;stroke:none"
             id="path3068" /><path
             d="m 1402.14,1253.14 c -22.09,0 -40.04,-17.89 -40.04,-39.96 0,-22.1 17.95,-29.41 40.04,-29.41 22.1,0 40.02,7.31 40.02,29.41 0,22.07 -17.92,39.96 -40.02,39.96"
             style="fill:#3c3b3c;fill-opacity:1;fill-rule:nonzero;stroke:none"
             id="path3070" /><path
             d="m 1306.78,1213.18 c 0,22.08 -17.9,39.96 -39.98,39.96 -22.08,0 -40.07,-17.88 -40.07,-39.96 0,-22.1 17.99,-29.41 40.07,-29.41 22.08,0 39.98,7.31 39.98,29.41"
             style="fill:#3c3b3c;fill-opacity:1;fill-rule:nonzero;stroke:none"
             id="path3072" /><path
             d="m 1864.83,638.18 c -28.33,14.73 -56.68,-3.078 -60.46,-28.809 -2.59,-17.391 11.05,-33.062 28.54,-34.711 29.98,-2.789 56.62,4.59 50.08,38.551 -2.01,10.5 -8.62,20 -18.16,24.969"
             style="fill:#3c3b3c;fill-opacity:1;fill-rule:nonzero;stroke:none"
             id="path3074" /><path
             d="m 1719.61,574.66 c 17.55,1.672 31.14,17.34 28.57,34.719 -3.8,25.769 -32.11,43.5 -60.43,28.769 -9.52,-4.937 -16.15,-14.418 -18.19,-24.937 -6.6,-33.941 20.2,-41.34 50.05,-38.551"
             style="fill:#3c3b3c;fill-opacity:1;fill-rule:nonzero;stroke:none"
             id="path3076" /><path
             d="m 2111.21,395.238 -0.77,-0.949 c -0.48,-0.687 -55.84,-70.34 -197.78,-140.949 -87.29,-43.391 -188.59,-78.051 -301.17,-103.031 -142.15,-31.477 -302.55,-47.457 -476.69,-47.457 -171.343,0 -329.429,15.457 -469.874,46.007 -111.785,24.289 -212.703,58.082 -299.946,100.551 -144,70.07 -202.566,140.852 -205.886,144.969 l -0.699,0.859 c -36.321,45.594 -55.555,100.551 -55.555,159.043 0,46.34 12.535,91.707 36.269,131.188 l 622.911,989.931 0,236.81 -16.036,15.22 c -0.925,0.89 -63.019,31.97 -108.839,121.55 18.812,-7.39 39.32,-14.31 61.519,-20.74 117.164,-34.16 272.047,-52.93 436.086,-52.93 164.07,0 318.95,18.77 436.14,52.93 22.13,6.43 42.59,13.35 61.4,20.66 -45.85,-89.26 -107.77,-120.63 -108.68,-121.47 l -16.03,-15.22 0,-236.81 622.95,-989.931 c 23.69,-39.481 36.23,-84.848 36.23,-131.188 0,-58.492 -19.19,-113.449 -55.55,-159.043 M 593.863,2193.13 l 0,0.01 0.047,0 c -3.16,4.74 -2.918,10.84 0,14.47 l -0.047,0.14 c 1.961,2.42 5.024,5.47 8.805,8.74 6.363,5.54 15.309,12.12 28.496,19.43 20.938,11.65 51.703,24.88 96.277,37.87 108.129,31.44 252.743,48.81 407.309,48.81 l 0.03,0 c 154.53,0 299.23,-17.37 407.3,-48.81 44.58,-12.99 75.37,-26.22 96.28,-37.87 13.21,-7.31 22.16,-13.89 28.55,-19.43 3.73,-3.27 6.82,-6.32 8.75,-8.74 l -0.02,-0.14 c 2.9,-3.63 3.15,-9.73 0,-14.47 l 0.02,0 0.03,-0.01 c -8.13,-10.15 -30.82,-28.72 -82.17,-48.7 0,0 0.1,-0.01 0.15,-0.04 -3.64,-1.39 -7.88,-2.85 -11.79,-4.24 -3.59,-1.28 -6.92,-2.58 -10.76,-3.9 -8.99,-3.03 -18.56,-6.11 -29.04,-9.16 -0.24,-0.02 -0.53,-0.07 -0.74,-0.18 -67.12,30 -209.17,64.82 -408.93,64.82 -197.926,0 -339.121,-34.21 -406.953,-63.98 -9.617,2.79 -18.66,5.66 -27.012,8.5 -3.851,1.29 -7.199,2.62 -10.746,3.86 -3.969,1.43 -8.226,2.89 -11.816,4.28 0.055,0.03 0.097,0.04 0.148,0.04 -51.351,19.98 -74.031,38.55 -82.168,48.7 M 2218.09,739.379 l -607.63,965.671 0,164.12 c 39.97,42.87 141.75,136.14 167.2,291.63 l -0.02,-0.05 c 4.69,44.46 9.07,117.92 -103.67,172.47 0,0 0.09,0.03 0.31,0.14 -28.88,14.51 -63.48,27.68 -103.39,39.3 -111.64,32.53 -257.5,51.05 -412.88,52.75 -51.87,-48.33 -118.68,-46.63 -102.94,-40.65 16.13,6.11 38.07,25.8 49.73,43.65 12.44,19.16 19.71,41.96 19.71,66.47 0,67.66 -54.84,122.55 -122.5,122.55 -67.666,0 -122.533,-54.89 -122.533,-122.55 0,-31.36 11.793,-59.94 31.152,-81.58 -78.317,-8.97 -150.359,-22.69 -211.965,-40.64 -40.004,-11.62 -74.602,-24.84 -103.516,-39.35 0.125,-0.06 0.2,-0.09 0.2,-0.09 -4.786,-2.31 -9.403,-4.69 -13.828,-7.07 -7.75,-4.31 -15.032,-8.77 -21.829,-13.25 -73.074,-49.43 -72.3,-108.22 -68.496,-147.49 24.184,-157.66 127.551,-252.93 167.961,-296.24 l 0,-164.12 L 51.7734,739.82 51.2461,739.012 C 17.707,683.379 0,619.5 0,554.281 0,473.512 27.6562,394.34 77.8516,331.309 85.2305,321.871 152.129,240.371 311.148,161.238 405.891,114.141 515.098,76.6914 635.832,49.8906 785.324,16.7891 953.199,0 1134.8,0 c 181.63,0 349.45,16.7891 498.94,49.8906 120.71,26.8008 229.96,64.2504 324.69,111.3474 159.25,79.231 226.09,160.852 233.33,170.071 50.23,63.062 77.86,142.23 77.86,222.972 0,65.219 -17.73,129.098 -51.25,184.731 l -0.28,0.367"
             style="fill:#3c3b3c;fill-opacity:1;fill-rule:nonzero;stroke:none"
             id="path3078" /><path
             d="m 551.512,537.852 c -22.11,0 -40.051,-17.93 -40.051,-40 0,-22.051 17.941,-29.391 40.051,-29.391 22.105,0 40.035,7.34 40.035,29.391 0,22.07 -17.93,40 -40.035,40"
             style="fill:#3c3b3c;fill-opacity:1;fill-rule:nonzero;stroke:none"
             id="path3080" /><path
             d="m 416.184,537.852 c -22.11,0 -40.106,-17.883 -40.106,-40 0,-22.051 17.996,-29.391 40.106,-29.391 22.058,0 39.957,7.34 39.957,29.391 0,22.117 -17.899,40 -39.957,40"
             style="fill:#3c3b3c;fill-opacity:1;fill-rule:nonzero;stroke:none"
             id="path3082" /><path
             d="m 1264.15,1086.05 c 0,0 32.97,-11.53 70.32,-11.53 37.35,0 71.11,11.64 71.11,11.64 6.63,2.24 11.55,8.43 11.75,15.84 0.29,9.53 -7.11,17.47 -16.7,17.8 l -1.99,0.07 c 0,0 -37.16,-2.2 -64.17,-2.2 -27.02,0 -65.06,2.38 -65.06,2.38 -7.13,-0.18 -13.85,-4.73 -16.27,-11.9 -3.06,-9.15 1.9,-19.02 11.01,-22.1"
             style="fill:#3c3b3c;fill-opacity:1;fill-rule:nonzero;stroke:none"
             id="path3084" /><path
             d="m 1842.46,510.16 -2.01,0.07 c 0,0 -37.13,-2.218 -64.17,-2.218 -26.99,0 -65.04,2.379 -65.04,2.379 -7.14,-0.161 -13.85,-4.7 -16.27,-11.879 -3.06,-9.141 1.87,-19.043 11.01,-22.121 0,0 32.97,-11.52 70.3,-11.52 37.37,0 71.13,11.649 71.13,11.649 6.63,2.242 11.55,8.41 11.75,15.82 0.29,9.558 -7.13,17.492 -16.7,17.82"
             style="fill:#3c3b3c;fill-opacity:1;fill-rule:nonzero;stroke:none"
             id="path3086" /><path
             d="m 5171.43,236.73 -38.63,0 0,-133.871 -22.98,0 0,133.871 -27.13,0 0,10.379 27.13,8.313 0,8.437 c 0,37.289 16.29,55.93 48.87,55.93 8.03,0 17.44,-1.617 28.24,-4.84 l -5.95,-18.418 c -8.86,2.86 -16.43,4.289 -22.71,4.289 -8.67,0 -15.09,-2.879 -19.24,-8.648 -4.15,-5.774 -6.23,-15.024 -6.23,-27.75 l 0,-9.832 38.63,0 0,-17.86"
             style="fill:#3c3b3c;fill-opacity:1;fill-rule:nonzero;stroke:none"
             id="path3088" /><path
             d="m 5204.1,178.859 c 0,-19.379 3.88,-34.148 11.63,-44.3 7.75,-10.149 19.15,-15.231 34.2,-15.231 15.04,0 26.46,5.063 34.26,15.16 7.8,10.114 11.7,24.903 11.7,44.371 0,19.289 -3.9,33.942 -11.7,43.961 -7.8,10.008 -19.31,15.02 -34.54,15.02 -15.05,0 -26.4,-4.942 -34.06,-14.82 -7.66,-9.872 -11.49,-24.59 -11.49,-44.161 z m 115.6,0 c 0,-24.73 -6.23,-44.039 -18.69,-57.937 -12.46,-13.891 -29.67,-20.832 -51.64,-20.832 -13.56,0 -25.61,3.191 -36.13,9.551 -10.52,6.371 -18.64,15.507 -24.37,27.41 -5.72,11.91 -8.58,25.84 -8.58,41.808 0,24.731 6.18,44 18.55,57.801 12.37,13.801 29.53,20.692 51.5,20.692 21.23,0 38.09,-7.051 50.6,-21.18 12.5,-14.121 18.76,-33.223 18.76,-57.313"
             style="fill:#3c3b3c;fill-opacity:1;fill-rule:nonzero;stroke:none"
             id="path3090" /><path
             d="m 5419.19,257.352 c 6.74,0 12.78,-0.551 18.14,-1.653 l -3.19,-21.32 c -6.28,1.383 -11.81,2.07 -16.61,2.07 -12.27,0 -22.77,-4.98 -31.49,-14.949 -8.73,-9.969 -13.09,-22.379 -13.09,-37.238 l 0,-81.403 -22.98,0 0,151.731 18.97,0 2.63,-28.11 1.11,0 c 5.63,9.879 12.41,17.489 20.35,22.848 7.93,5.352 16.66,8.024 26.16,8.024"
             style="fill:#3c3b3c;fill-opacity:1;fill-rule:nonzero;stroke:none"
             id="path3092" /><path
             d="m 5649.97,102.859 -112.82,0 0,202.391 112.82,0 0,-20.898 -89.29,0 0,-65.204 83.89,0 0,-20.769 -83.89,0 0,-74.481 89.29,0 0,-21.039"
             style="fill:#3c3b3c;fill-opacity:1;fill-rule:nonzero;stroke:none"
             id="path3094" /><path
             d="m 5782.01,102.859 0,98.153 c 0,12.367 -2.82,21.597 -8.45,27.687 -5.63,6.09 -14.44,9.141 -26.44,9.141 -15.87,0 -27.5,-4.301 -34.88,-12.879 -7.39,-8.582 -11.08,-22.75 -11.08,-42.5 l 0,-79.602 -22.98,0 0,151.731 18.69,0 3.74,-20.77 1.1,0 c 4.71,7.481 11.31,13.27 19.8,17.371 8.49,4.11 17.95,6.161 28.38,6.161 18.27,0 32.03,-4.403 41.25,-13.211 9.23,-8.821 13.85,-22.922 13.85,-42.301 l 0,-98.981 -22.98,0"
             style="fill:#3c3b3c;fill-opacity:1;fill-rule:nonzero;stroke:none"
             id="path3096" /><path
             d="m 5891.79,119.059 c 4.06,0 7.98,0.3 11.77,0.902 3.78,0.598 6.78,1.219 8.99,1.859 l 0,-17.578 c -2.49,-1.203 -6.16,-2.191 -11,-2.972 -4.85,-0.79 -9.21,-1.18 -13.08,-1.18 -29.35,0 -44.03,15.461 -44.03,46.379 l 0,90.261 -21.73,0 0,11.071 21.73,9.551 9.69,32.398 13.29,0 0,-35.16 44.03,0 0,-17.86 -44.03,0 0,-89.289 c 0,-9.14 2.17,-16.16 6.51,-21.05 4.34,-4.891 10.29,-7.332 17.86,-7.332"
             style="fill:#3c3b3c;fill-opacity:1;fill-rule:nonzero;stroke:none"
             id="path3098" /><path
             d="m 6004.32,257.352 c 6.74,0 12.78,-0.551 18.14,-1.653 l -3.19,-21.32 c -6.28,1.383 -11.81,2.07 -16.61,2.07 -12.27,0 -22.77,-4.98 -31.49,-14.949 -8.73,-9.969 -13.09,-22.379 -13.09,-37.238 l 0,-81.403 -22.98,0 0,151.731 18.97,0 2.63,-28.11 1.11,0 c 5.62,9.879 12.41,17.489 20.35,22.848 7.93,5.352 16.66,8.024 26.16,8.024"
             style="fill:#3c3b3c;fill-opacity:1;fill-rule:nonzero;stroke:none"
             id="path3100" /><path
             d="m 6097.16,238.109 c -12.18,0 -21.89,-3.968 -29.14,-11.898 -7.24,-7.941 -11.51,-18.93 -12.8,-32.949 l 79.32,0 c 0,14.488 -3.23,25.578 -9.69,33.289 -6.46,7.711 -15.69,11.558 -27.69,11.558 z m 6.23,-138.019 c -22.42,0 -40.12,6.832 -53.09,20.488 -12.96,13.664 -19.45,32.621 -19.45,56.902 0,24.45 6.02,43.879 18.07,58.282 12.04,14.398 28.22,21.59 48.52,21.59 19.01,0 34.06,-6.25 45.13,-18.75 11.08,-12.512 16.61,-29.012 16.61,-49.493 l 0,-14.539 -104.52,0 c 0.46,-17.808 4.96,-31.332 13.5,-40.558 8.54,-9.231 20.56,-13.852 36.06,-13.852 16.34,0 32.49,3.422 48.46,10.25 l 0,-20.488 c -8.13,-3.512 -15.81,-6.024 -23.05,-7.551 -7.25,-1.519 -15.99,-2.281 -26.24,-2.281"
             style="fill:#3c3b3c;fill-opacity:1;fill-rule:nonzero;stroke:none"
             id="path3102" /><path
             d="m 6255.77,237.84 c -15.5,0 -26.71,-4.301 -33.63,-12.879 -6.93,-8.582 -10.48,-22.242 -10.66,-40.981 l 0,-5.121 c 0,-21.32 3.55,-36.57 10.66,-45.75 7.1,-9.187 18.5,-13.781 34.19,-13.781 13.1,0 23.37,5.313 30.8,15.922 7.43,10.609 11.15,25.242 11.15,43.891 0,18.918 -3.72,33.429 -11.15,43.539 -7.43,10.101 -17.88,15.16 -31.36,15.16 z m 3.33,-137.75 c -9.88,0 -18.9,1.82 -27.07,5.469 -8.16,3.64 -15.02,9.25 -20.55,16.82 l -1.67,0 c 1.11,-8.859 1.67,-17.258 1.67,-25.1993 l 0,-62.4297 -22.99,0 0,219.84 18.69,0 3.19,-20.77 1.11,0 c 5.9,8.309 12.78,14.301 20.62,18 7.84,3.692 16.84,5.532 27,5.532 20.12,0 35.64,-6.872 46.58,-20.622 10.94,-13.75 16.41,-33.039 16.41,-57.871 0,-24.918 -5.57,-44.277 -16.69,-58.07 -11.12,-13.801 -26.55,-20.699 -46.3,-20.699"
             style="fill:#3c3b3c;fill-opacity:1;fill-rule:nonzero;stroke:none"
             id="path3104" /><path
             d="m 6421.64,257.352 c 6.74,0 12.78,-0.551 18.14,-1.653 l -3.19,-21.32 c -6.27,1.383 -11.81,2.07 -16.61,2.07 -12.27,0 -22.77,-4.98 -31.49,-14.949 -8.73,-9.969 -13.09,-22.379 -13.09,-37.238 l 0,-81.403 -22.98,0 0,151.731 18.97,0 2.63,-28.11 1.11,0 c 5.63,9.879 12.41,17.489 20.35,22.848 7.93,5.352 16.66,8.024 26.16,8.024"
             style="fill:#3c3b3c;fill-opacity:1;fill-rule:nonzero;stroke:none"
             id="path3106" /><path
             d="m 6514.48,238.109 c -12.18,0 -21.89,-3.968 -29.14,-11.898 -7.24,-7.941 -11.51,-18.93 -12.8,-32.949 l 79.32,0 c 0,14.488 -3.23,25.578 -9.69,33.289 -6.46,7.711 -15.69,11.558 -27.69,11.558 z m 6.24,-138.019 c -22.43,0 -40.13,6.832 -53.1,20.488 -12.96,13.664 -19.45,32.621 -19.45,56.902 0,24.45 6.02,43.879 18.07,58.282 12.04,14.398 28.22,21.59 48.52,21.59 19.01,0 34.06,-6.25 45.13,-18.75 11.08,-12.512 16.61,-29.012 16.61,-49.493 l 0,-14.539 -104.52,0 c 0.46,-17.808 4.96,-31.332 13.5,-40.558 8.54,-9.231 20.56,-13.852 36.06,-13.852 16.34,0 32.49,3.422 48.46,10.25 l 0,-20.488 c -8.13,-3.512 -15.81,-6.024 -23.05,-7.551 -7.25,-1.519 -15.99,-2.281 -26.23,-2.281"
             style="fill:#3c3b3c;fill-opacity:1;fill-rule:nonzero;stroke:none"
             id="path3108" /><path
             d="m 6709.64,102.859 0,98.153 c 0,12.367 -2.81,21.597 -8.44,27.687 -5.63,6.09 -14.45,9.141 -26.44,9.141 -15.88,0 -27.51,-4.301 -34.89,-12.879 -7.38,-8.582 -11.08,-22.75 -11.08,-42.5 l 0,-79.602 -22.98,0 0,151.731 18.69,0 3.74,-20.77 1.11,0 c 4.71,7.481 11.3,13.27 19.79,17.371 8.49,4.11 17.96,6.161 28.39,6.161 18.27,0 32.02,-4.403 41.25,-13.211 9.23,-8.821 13.84,-22.922 13.84,-42.301 l 0,-98.981 -22.98,0"
             style="fill:#3c3b3c;fill-opacity:1;fill-rule:nonzero;stroke:none"
             id="path3110" /><path
             d="m 6828.03,238.109 c -12.18,0 -21.9,-3.968 -29.14,-11.898 -7.25,-7.941 -11.52,-18.93 -12.81,-32.949 l 79.33,0 c 0,14.488 -3.23,25.578 -9.69,33.289 -6.47,7.711 -15.69,11.558 -27.69,11.558 z m 6.23,-138.019 c -22.43,0 -40.13,6.832 -53.09,20.488 -12.97,13.664 -19.45,32.621 -19.45,56.902 0,24.45 6.02,43.879 18.06,58.282 12.05,14.398 28.22,21.59 48.52,21.59 19.02,0 34.06,-6.25 45.14,-18.75 11.07,-12.512 16.61,-29.012 16.61,-49.493 l 0,-14.539 -104.52,0 c 0.46,-17.808 4.96,-31.332 13.5,-40.558 8.53,-9.231 20.55,-13.852 36.06,-13.852 16.33,0 32.49,3.422 48.45,10.25 l 0,-20.488 c -8.12,-3.512 -15.81,-6.024 -23.05,-7.551 -7.25,-1.519 -15.99,-2.281 -26.23,-2.281"
             style="fill:#3c3b3c;fill-opacity:1;fill-rule:nonzero;stroke:none"
             id="path3112" /><path
             d="m 6940.67,254.59 0,-98.43 c 0,-12.371 2.82,-21.601 8.45,-27.691 5.63,-6.09 14.44,-9.141 26.44,-9.141 15.87,0 27.48,4.344 34.81,13.024 7.34,8.668 11.01,22.839 11.01,42.5 l 0,79.738 22.98,0 0,-151.731 -18.97,0 -3.32,20.352 -1.24,0 c -4.71,-7.481 -11.24,-13.199 -19.59,-17.172 -8.35,-3.969 -17.88,-5.949 -28.59,-5.949 -18.46,0 -32.28,4.379 -41.46,13.148 -9.19,8.774 -13.78,22.801 -13.78,42.09 l 0,99.262 23.26,0"
             style="fill:#3c3b3c;fill-opacity:1;fill-rule:nonzero;stroke:none"
             id="path3114" /><path
             d="m 7151.19,257.352 c 6.74,0 12.78,-0.551 18.14,-1.653 l -3.19,-21.32 c -6.27,1.383 -11.81,2.07 -16.61,2.07 -12.27,0 -22.77,-4.98 -31.49,-14.949 -8.72,-9.969 -13.09,-22.379 -13.09,-37.238 l 0,-81.403 -22.98,0 0,151.731 18.97,0 2.63,-28.11 1.11,0 c 5.63,9.879 12.41,17.489 20.35,22.848 7.93,5.352 16.66,8.024 26.16,8.024"
             style="fill:#3c3b3c;fill-opacity:1;fill-rule:nonzero;stroke:none"
             id="path3116" /><path
             d="m 7291.22,144.25 c 0,-14.121 -5.26,-25.008 -15.78,-32.672 -10.53,-7.656 -25.29,-11.488 -44.3,-11.488 -20.13,0 -35.81,3.191 -47.07,9.551 l 0,21.32 c 7.28,-3.691 15.11,-6.602 23.46,-8.723 8.35,-2.117 16.41,-3.179 24.16,-3.179 11.99,0 21.23,1.91 27.69,5.742 6.45,3.828 9.69,9.668 9.69,17.508 0,5.91 -2.57,10.961 -7.69,15.16 -5.12,4.203 -15.11,9.16 -29.97,14.883 -14.12,5.269 -24.15,9.847 -30.11,13.777 -5.95,3.922 -10.38,8.383 -13.29,13.359 -2.9,4.981 -4.36,10.934 -4.36,17.864 0,12.359 5.03,22.117 15.09,29.277 10.06,7.152 23.86,10.723 41.39,10.723 16.34,0 32.3,-3.321 47.9,-9.961 l -8.16,-18.692 c -15.23,6.27 -29.03,9.41 -41.4,9.41 -10.89,0 -19.1,-1.711 -24.64,-5.117 -5.54,-3.422 -8.3,-8.121 -8.3,-14.121 0,-4.062 1.03,-7.519 3.11,-10.383 2.08,-2.859 5.42,-5.59 10.04,-8.168 4.61,-2.59 13.47,-6.32 26.58,-11.211 17.99,-6.558 30.15,-13.16 36.47,-19.8 6.33,-6.649 9.49,-15 9.49,-25.059"
             style="fill:#3c3b3c;fill-opacity:1;fill-rule:nonzero;stroke:none"
             id="path3118" /><path
             d="m 2516.74,202.672 21.18,0 c 20.85,0 35.94,3.367 45.27,10.109 9.32,6.731 13.98,17.528 13.98,32.391 0,13.379 -4.39,23.348 -13.15,29.898 -8.77,6.559 -22.43,9.828 -40.98,9.828 l -26.3,0 0,-82.226 z m 104.79,43.609 c 0,-20.492 -6.99,-36.25 -20.97,-47.281 -13.98,-11.031 -33.99,-16.539 -60.01,-16.539 l -23.81,0 0,-79.602 -23.54,0 0,202.391 52.47,0 c 50.57,0 75.86,-19.648 75.86,-58.969"
             style="fill:#3c3b3c;fill-opacity:1;fill-rule:nonzero;stroke:none"
             id="path3120" /><path
             d="m 2662.73,178.859 c 0,-19.379 3.88,-34.148 11.63,-44.3 7.75,-10.149 19.15,-15.231 34.19,-15.231 15.05,0 26.47,5.063 34.27,15.16 7.79,10.114 11.69,24.903 11.69,44.371 0,19.289 -3.9,33.942 -11.69,43.961 -7.8,10.008 -19.32,15.02 -34.54,15.02 -15.05,0 -26.4,-4.942 -34.06,-14.82 -7.66,-9.872 -11.49,-24.59 -11.49,-44.161 z m 115.6,0 c 0,-24.73 -6.23,-44.039 -18.69,-57.937 -12.46,-13.891 -29.68,-20.832 -51.64,-20.832 -13.57,0 -25.61,3.191 -36.13,9.551 -10.52,6.371 -18.65,15.507 -24.37,27.41 -5.72,11.91 -8.58,25.84 -8.58,41.808 0,24.731 6.18,44 18.55,57.801 12.37,13.801 29.53,20.692 51.5,20.692 21.22,0 38.09,-7.051 50.6,-21.18 12.5,-14.121 18.76,-33.223 18.76,-57.313"
             style="fill:#3c3b3c;fill-opacity:1;fill-rule:nonzero;stroke:none"
             id="path3122" /><path
             d="m 2932.73,102.859 -27.83,89.012 c -1.75,5.449 -5.03,17.82 -9.83,37.109 l -1.1,0 c -3.7,-16.16 -6.93,-28.621 -9.69,-37.378 l -28.66,-88.743 -26.58,0 -41.39,151.731 24.09,0 c 9.78,-38.121 17.23,-67.149 22.35,-87.078 5.12,-19.942 8.05,-33.364 8.79,-40.293 l 1.11,0 c 1.02,5.269 2.65,12.07 4.92,20.422 2.26,8.359 4.22,14.968 5.88,19.871 l 27.82,87.078 24.92,0 27.14,-87.078 c 5.16,-15.883 8.67,-29.211 10.52,-40.012 l 1.11,0 c 0.36,3.32 1.36,8.449 2.97,15.371 1.62,6.918 11.24,44.16 28.87,111.719 l 23.81,0 -41.95,-151.731 -27.27,0"
             style="fill:#3c3b3c;fill-opacity:1;fill-rule:nonzero;stroke:none"
             id="path3124" /><path
             d="m 3077.33,238.109 c -12.18,0 -21.9,-3.968 -29.14,-11.898 -7.25,-7.941 -11.51,-18.93 -12.81,-32.949 l 79.33,0 c 0,14.488 -3.23,25.578 -9.69,33.289 -6.46,7.711 -15.69,11.558 -27.69,11.558 z m 6.23,-138.019 c -22.43,0 -40.13,6.832 -53.09,20.488 -12.97,13.664 -19.45,32.621 -19.45,56.902 0,24.45 6.02,43.879 18.06,58.282 12.05,14.398 28.22,21.59 48.53,21.59 19.01,0 34.05,-6.25 45.13,-18.75 11.07,-12.512 16.61,-29.012 16.61,-49.493 l 0,-14.539 -104.52,0 c 0.46,-17.808 4.96,-31.332 13.5,-40.558 8.53,-9.231 20.56,-13.852 36.06,-13.852 16.34,0 32.48,3.422 48.45,10.25 l 0,-20.488 c -8.12,-3.512 -15.8,-6.024 -23.05,-7.551 -7.24,-1.519 -15.99,-2.281 -26.23,-2.281"
             style="fill:#3c3b3c;fill-opacity:1;fill-rule:nonzero;stroke:none"
             id="path3126" /><path
             d="m 3237.88,257.352 c 6.74,0 12.78,-0.551 18.13,-1.653 l -3.18,-21.32 c -6.28,1.383 -11.82,2.07 -16.61,2.07 -12.28,0 -22.78,-4.98 -31.5,-14.949 -8.72,-9.969 -13.08,-22.379 -13.08,-37.238 l 0,-81.403 -22.98,0 0,151.731 18.97,0 2.63,-28.11 1.1,0 c 5.63,9.879 12.42,17.489 20.35,22.848 7.94,5.352 16.66,8.024 26.17,8.024"
             style="fill:#3c3b3c;fill-opacity:1;fill-rule:nonzero;stroke:none"
             id="path3128" /><path
             d="m 3330.72,238.109 c -12.18,0 -21.9,-3.968 -29.14,-11.898 -7.25,-7.941 -11.51,-18.93 -12.8,-32.949 l 79.32,0 c 0,14.488 -3.23,25.578 -9.69,33.289 -6.46,7.711 -15.69,11.558 -27.69,11.558 z m 6.23,-138.019 c -22.43,0 -40.12,6.832 -53.09,20.488 -12.97,13.664 -19.45,32.621 -19.45,56.902 0,24.45 6.02,43.879 18.06,58.282 12.05,14.398 28.22,21.59 48.53,21.59 19.01,0 34.05,-6.25 45.13,-18.75 11.07,-12.512 16.61,-29.012 16.61,-49.493 l 0,-14.539 -104.52,0 c 0.46,-17.808 4.96,-31.332 13.5,-40.558 8.53,-9.231 20.56,-13.852 36.06,-13.852 16.34,0 32.49,3.422 48.45,10.25 l 0,-20.488 c -8.12,-3.512 -15.8,-6.024 -23.05,-7.551 -7.24,-1.519 -15.99,-2.281 -26.23,-2.281"
             style="fill:#3c3b3c;fill-opacity:1;fill-rule:nonzero;stroke:none"
             id="path3130" /><path
             d="m 3481.01,119.328 c 15.69,0 27.06,4.274 34.12,12.813 7.06,8.531 10.59,22.308 10.59,41.32 l 0,4.848 c 0,21.5 -3.57,36.839 -10.73,46.031 -7.15,9.18 -18.57,13.769 -34.26,13.769 -13.47,0 -23.79,-5.238 -30.94,-15.711 -7.15,-10.476 -10.73,-25.269 -10.73,-44.367 0,-19.383 3.55,-34.011 10.66,-43.883 7.11,-9.878 17.54,-14.82 31.29,-14.82 z m 45.96,3.883 -1.25,0 c -10.61,-15.41 -26.49,-23.121 -47.62,-23.121 -19.84,0 -35.28,6.781 -46.31,20.351 -11.02,13.571 -16.54,32.86 -16.54,57.868 0,25.011 5.54,44.429 16.61,58.281 11.08,13.84 26.49,20.762 46.24,20.762 20.58,0 36.36,-7.473 47.35,-22.422 l 1.8,0 -0.97,10.941 -0.56,10.649 0,61.75 22.98,0 0,-215.411 -18.69,0 -3.04,20.352"
             style="fill:#3c3b3c;fill-opacity:1;fill-rule:nonzero;stroke:none"
             id="path3132" /><path
             d="m 3732.69,237.84 c -15.69,0 -26.99,-4.5 -33.91,-13.5 -6.93,-9 -10.39,-24.16 -10.39,-45.481 0,-21.32 3.55,-36.57 10.66,-45.75 7.11,-9.187 18.51,-13.781 34.2,-13.781 14.12,0 24.64,5.152 31.56,15.442 6.92,10.289 10.38,25.082 10.38,44.371 0,19.75 -3.46,34.468 -10.38,44.16 -6.92,9.691 -17.63,14.539 -32.12,14.539 z m 3.32,19.242 c 19.94,0 35.42,-6.812 46.45,-20.422 11.03,-13.621 16.54,-32.879 16.54,-57.801 0,-24.918 -5.56,-44.277 -16.68,-58.07 -11.12,-13.801 -26.56,-20.699 -46.31,-20.699 -9.87,0 -18.89,1.82 -27.06,5.469 -8.17,3.64 -15.02,9.25 -20.56,16.82 l -1.66,0 -4.84,-19.52 -16.48,0 0,215.411 22.98,0 0,-52.329 c 0,-11.722 -0.37,-22.25 -1.1,-31.562 l 1.1,0 c 10.71,15.133 26.58,22.703 47.62,22.703"
             style="fill:#3c3b3c;fill-opacity:1;fill-rule:nonzero;stroke:none"
             id="path3134" /><path
             d="m 3804.85,254.59 24.65,0 33.22,-86.531 c 7.29,-19.75 11.81,-34.008 13.57,-42.77 l 1.11,0 c 1.19,4.699 3.71,12.75 7.54,24.152 3.83,11.399 16.36,46.45 37.58,105.149 l 24.65,0 -65.21,-172.7697 c -6.46,-17.082 -14,-29.1914 -22.63,-36.3398 -8.63,-7.1485 -19.22,-10.7305 -31.77,-10.7305 -7.02,0 -13.94,0.7812 -20.77,2.3516 l 0,18.4101 c 5.08,-1.1015 10.75,-1.6601 17.03,-1.6601 15.78,0 27.04,8.8593 33.78,26.5781 l 8.44,21.6013 -61.19,152.559"
             style="fill:#3c3b3c;fill-opacity:1;fill-rule:nonzero;stroke:none"
             id="path3136" /><path
             d="m 4791.67,324.57 -23.45,-11.23 23.88,0 0,-0.168 0,0.129 0,-193 c 0,-6.262 -1.26,-7.16 -8.42,-16.531 l 55.25,0 11.54,6.839 c -5.27,0.621 -10.6,0.95 -15.93,1.582 -10.29,0.95 -12.47,2.789 -12.47,14.957 l 0,177 c 0.06,0.661 0.12,1.332 0.2,1.993 1.26,10.91 4.38,12.808 14.04,18.429 l -44.64,0 z M 4045.56,200.621 c 0,-49.652 32.82,-113.0194 118.98,-113.0194 17.11,0 33.37,2.4882 51.49,5.2695 l 44.66,10.3279 0,38.071 c 0,3.16 0.28,12.23 0.6,15 0.66,2.5 0.91,3.121 3.15,4.992 l 8.13,7.816 -66.2,0 -24.99,-13.406 47.15,2.488 0,-50.25 c -9.39,-3.769 -19.63,-7.801 -39.65,-7.801 -68.06,0 -110.5,55.25 -110.5,113.922 0,54.617 37.13,92.09 86.45,92.09 36.85,0 56.2,-19.039 66.84,-29.312 l -7.86,-12.5 10.94,2.472 25.94,24.641 c -6.88,4.719 -17.84,12.828 -41.23,19.387 -14.66,4.101 -30.9,6.562 -47.73,6.562 -79.65,0 -126.17,-56.172 -126.17,-116.75 m 415.16,-29 c 0,-34.742 26.35,-73.2812 75.76,-73.2812 50.6,0 78.86,38.8202 78.86,75.4412 0,37.59 -28.54,73.301 -74.19,73.301 -47.2,0 -80.43,-34.781 -80.43,-75.461 m 30.1,17.367 c 0,13.371 2.18,27.024 14.29,37.91 7.42,6.512 17.71,10.543 27.95,10.543 38.51,0 51.56,-52.152 51.56,-79.48 0,-12.121 -1.86,-24.539 -9.32,-34.461 -7.14,-9.93 -19.59,-15.82 -31.66,-15.82 -37.6,0 -52.82,50.601 -52.82,81.308 m -204.51,-17.367 c 0,-34.742 26.4,-73.2812 75.8,-73.2812 50.63,0 78.9,38.8202 78.9,75.4412 0,37.59 -28.6,73.301 -74.27,73.301 -47.16,0 -80.43,-34.781 -80.43,-75.461 m 30.14,17.367 c 0,13.371 2.19,27.024 14.3,37.91 7.44,6.512 17.7,10.543 27.94,10.543 38.51,0 51.56,-52.152 51.56,-79.48 0,-12.121 -1.88,-24.539 -9.3,-34.461 -7.16,-9.93 -19.59,-15.82 -31.73,-15.82 -37.56,0 -52.77,50.601 -52.77,81.308 m 536.24,-13.636 c 0,-23.243 9.66,-49.93 31.64,-65.442 15.82,-11.4491 31.35,-12.0702 41.27,-12.0702 9.29,0 19.83,1.25 30.08,5.9102 3.39,1.531 6.8,3.691 10.21,5.559 l 16.42,15.531 c -10.52,-5.289 -21.98,-10.879 -37.8,-10.879 -29.48,0 -56.16,22.961 -63.91,62.34 l 23.89,1.84 72.86,29.48 c -2.16,7.141 -6.19,20.457 -21.67,30.68 -9.31,5.89 -20.79,8.66 -31.96,8.66 -31.91,0 -71.03,-23.531 -71.03,-71.609 m 26.71,18.296 c 0,33.473 23.21,43.082 35.63,43.082 16.74,0 30.72,-14.218 30.72,-26.628 0,-4.352 -3.13,-6.211 -9,-8.372 l -56.44,-24.492 c -0.32,5.551 -0.91,11.121 -0.91,16.41 m -171.58,49.032 c -16.78,0 -37.94,-2.52 -55.68,-17.129 -13.37,-11.5 -19.86,-27.391 -19.86,-41.672 0,-24.258 18.64,-48.82 51.62,-48.82 3.1,0 6.53,0.32 9.97,0.601 -1.57,-3.711 -3.14,-6.828 -3.14,-12.14 0,-9.61 4.98,-15.528 9.32,-21.161 -14,-0.918 -40.12,-2.4684 -59.39,-14.3082 -18.37,-10.8711 -23.93,-26.7188 -23.93,-37.9219 0,-23.0469 21.77,-44.48828 66.87,-44.48828 53.47,0 81.79,29.53128 81.79,58.78128 0,21.4687 -12.46,32.0273 -26.16,43.5701 l -11.15,8.688 c -3.45,2.82 -8.12,6.519 -8.12,13.359 0,6.883 4.67,11.231 8.73,15.262 13.03,10.277 26.12,21.16 26.12,44.187 0,23.614 -14.9,36.063 -22.1,41.992 l 19.29,0 19.91,11.2 -64.09,0 z m -48.22,-43.571 c 0,8.082 1.59,16.481 6.89,23.012 4.97,6.211 13.68,10.277 21.79,10.277 25.78,0 39.15,-34.828 39.15,-57.25 0,-5.597 -0.63,-15.527 -7.77,-22.699 -4.99,-4.969 -13.37,-8.719 -21.16,-8.719 -26.71,0 -38.9,34.559 -38.9,55.379 M 4644.07,56.6484 c 0,22.1133 19.93,29.5235 26.74,32.0313 13.09,4.3906 29.87,4.9922 32.65,4.9922 3.15,0 4.7,0 7.15,-0.3321 23.67,-16.789 33.95,-25.1484 33.95,-41.039 0,-19.2891 -15.87,-33.6094 -45.73,-33.6094 -33.28,0 -54.76,15.8672 -54.76,37.957"
             style="fill:#3c3b3c;fill-opacity:1;fill-rule:nonzero;stroke:none"
             id="path3138" /></g></g></g></g></svg>